<?xml version="1.0" standalone="no"?>
<!DOCTYPE svg PUBLIC "-//W3C//DTD SVG 20010904//EN"
 "http://www.w3.org/TR/2001/REC-SVG-20010904/DTD/svg10.dtd">
<svg version="1.0" xmlns="http://www.w3.org/2000/svg"
 width="128.000000pt" height="128.000000pt" viewBox="0 0 128.000000 128.000000"
 preserveAspectRatio="xMidYMid meet">

<g transform="translate(0.000000,128.000000) scale(0.100000,-0.100000)"
fill="#000000" stroke="none">
<path d="M309 1241 c-30 -30 -39 -47 -39 -72 0 -31 22 -56 247 -281 l248 -248
-247 -248 c-136 -136 -248 -254 -249 -262 -10 -50 57 -130 109 -130 21 0 83
56 330 303 272 271 303 306 304 336 1 31 -23 57 -303 337 -343 342 -331 334
-400 265z"/>
</g>
</svg>
