<?xml version="1.0" standalone="no"?>
<!DOCTYPE svg PUBLIC "-//W3C//DTD SVG 20010904//EN"
 "http://www.w3.org/TR/2001/REC-SVG-20010904/DTD/svg10.dtd">
<svg version="1.0" xmlns="http://www.w3.org/2000/svg"
 width="512.000000pt" height="512.000000pt" viewBox="0 0 512.000000 512.000000"
 preserveAspectRatio="xMidYMid meet">

<g transform="translate(0.000000,512.000000) scale(0.100000,-0.100000)"
fill="#000000" stroke="none">
<path d="M4738 5096 c-21 -8 -50 -22 -65 -32 -63 -41 -709 -528 -725 -546 -31
-35 -23 -85 23 -145 22 -30 39 -58 37 -63 -2 -4 -52 -46 -113 -92 -94 -71
-114 -91 -140 -142 -29 -58 -30 -63 -30 -205 0 -100 -4 -153 -13 -168 -7 -13
-57 -56 -111 -97 l-99 -75 -206 274 c-229 305 -242 318 -342 316 -63 0 -104
-19 -139 -64 -14 -17 -183 -324 -375 -682 l-349 -650 -1018 -5 c-560 -3 -1025
-9 -1034 -13 -37 -18 -39 -48 -39 -508 l0 -450 25 -24 24 -25 316 0 315 0 0
-345 0 -345 -315 0 -316 0 -24 -25 -25 -24 0 -454 c0 -444 0 -455 21 -481 l20
-26 2093 0 2093 0 19 21 c18 20 19 44 22 420 l3 398 315 3 316 3 24 28 24 28
0 454 0 454 -24 28 -24 28 -316 3 -315 3 -3 400 -3 401 -28 24 c-25 21 -37 24
-118 24 l-89 0 0 34 c0 18 -5 48 -11 67 -7 19 -101 154 -210 300 -110 146
-199 269 -199 272 0 3 35 32 78 63 106 78 149 120 180 179 26 48 27 57 27 200
0 122 3 154 16 173 16 22 196 162 208 162 3 0 22 -23 41 -51 36 -52 74 -79
109 -79 26 0 770 557 800 598 68 96 66 209 -6 315 -90 133 -208 185 -325 143z
m115 -167 c24 -14 48 -40 78 -87 16 -25 19 -41 15 -68 -6 -32 -34 -55 -328
-276 -177 -132 -327 -241 -334 -242 -16 -1 -157 185 -147 195 62 55 659 489
674 489 11 0 30 -5 42 -11z m-1683 -1238 c105 -140 189 -258 188 -262 -2 -5
-82 -67 -178 -139 -96 -72 -181 -138 -187 -147 -22 -29 -15 -72 16 -104 31
-31 63 -36 97 -16 15 9 288 211 351 259 14 11 407 -507 399 -527 -6 -16 51 -3
-924 -210 -431 -92 -790 -164 -798 -161 -8 3 -14 12 -14 20 0 8 185 360 412
781 330 616 415 765 429 763 10 -2 102 -116 209 -257z m-1800 -1481 l0 -340
-600 0 -600 0 0 170 0 170 99 0 c91 0 102 2 127 24 39 33 39 89 0 122 -25 22
-36 24 -127 24 l-99 0 0 85 0 85 600 0 600 0 0 -340z m620 336 c0 -2 -9 -23
-20 -47 -61 -135 31 -289 172 -289 27 0 536 102 576 115 9 3 12 -46 12 -225
l0 -230 -595 0 -595 0 0 340 0 340 225 0 c124 0 225 -2 225 -4z m2110 -336 l0
-340 -600 0 -600 0 2 247 3 248 425 91 425 92 173 1 172 1 0 -340z m-2052
-852 l-3 -343 -595 0 -595 0 -3 330 c-1 181 0 336 3 342 3 10 131 13 600 13
l595 0 -2 -342z m1362 -3 l0 -345 -595 0 -595 0 0 345 0 345 595 0 595 0 0
-345z m1370 0 l0 -345 -597 2 -598 3 -3 330 c-1 181 0 336 3 342 3 10 131 13
600 13 l595 0 0 -345z m-3412 -852 l-3 -338 -597 -3 -598 -2 0 340 0 340 600
0 600 0 -2 -337z m1362 -3 l0 -340 -595 0 -595 0 0 340 0 340 595 0 595 0 0
-340z m1370 0 l0 -340 -600 0 -600 0 0 340 0 340 600 0 600 0 0 -340z"/>
<path d="M645 2368 c-52 -28 -62 -92 -20 -133 24 -25 25 -25 227 -25 212 1
223 3 246 47 19 35 14 63 -17 94 l-29 29 -194 0 c-120 0 -201 -5 -213 -12z"/>
</g>
</svg>
