<?xml version="1.0" standalone="no"?>
<!DOCTYPE svg PUBLIC "-//W3C//DTD SVG 20010904//EN"
 "http://www.w3.org/TR/2001/REC-SVG-20010904/DTD/svg10.dtd">
<svg version="1.0" xmlns="http://www.w3.org/2000/svg"
 width="512.000000pt" height="512.000000pt" viewBox="0 0 512.000000 512.000000"
 preserveAspectRatio="xMidYMid meet">

<g transform="translate(0.000000,512.000000) scale(0.100000,-0.100000)"
fill="#000000" stroke="none">
<path d="M1052 4780 l-502 -340 -65 0 c-75 0 -116 -17 -133 -55 -8 -17 -12
-85 -12 -193 0 -136 3 -172 16 -190 27 -38 67 -52 154 -52 l80 0 0 -135 0
-135 -91 0 c-90 0 -91 0 -126 -35 l-34 -34 3 -181 3 -182 33 -29 32 -29 251 0
c272 0 291 3 319 56 12 21 15 66 15 193 0 225 -4 231 -160 241 l-90 5 -3 133
-3 132 167 0 167 0 -6 -42 c-12 -87 44 -148 136 -148 l47 0 0 -1625 0 -1625
-70 0 c-76 0 -109 -11 -129 -42 -19 -31 -111 -343 -111 -378 0 -22 9 -41 29
-61 l29 -29 576 0 576 0 32 29 c44 39 42 66 -21 271 -62 203 -68 210 -177 210
l-74 0 0 1625 0 1625 45 0 c92 0 135 43 135 132 l0 58 364 0 c352 0 364 1 390
21 34 27 36 79 4 109 -21 19 -33 20 -405 20 l-383 0 -5 23 c-9 40 -25 140 -25
154 0 11 211 13 1181 13 l1181 0 29 -29 c47 -48 38 -116 -21 -146 -25 -13
-116 -15 -650 -15 -419 0 -628 -3 -641 -11 -48 -25 -44 -105 7 -128 17 -8 168
-11 499 -11 l475 0 0 -252 0 -253 -50 -28 c-84 -46 -139 -154 -125 -246 23
-153 171 -250 317 -207 69 20 120 63 152 128 42 83 33 158 -21 179 -48 18
-103 -23 -103 -77 0 -29 -30 -71 -59 -84 -66 -27 -136 20 -136 92 0 33 6 45
33 69 18 16 41 29 52 29 32 0 67 21 79 47 7 16 11 123 11 313 l0 290 68 0
c136 0 229 52 272 152 18 42 21 65 18 113 -6 70 -24 109 -70 155 -67 67 -80
70 -411 70 l-298 0 -412 126 c-1328 405 -1820 554 -1836 554 -9 0 -243 -153
-519 -340z m1433 -90 c434 -132 791 -243 794 -245 2 -3 -284 -5 -637 -5 l-641
0 -6 38 c-11 66 -25 98 -51 123 -24 22 -36 24 -157 29 l-132 5 -3 154 -3 153
23 -5 c13 -4 378 -115 813 -247z m-985 75 l0 -135 -120 0 c-167 0 -188 -13
-210 -128 l-13 -62 -165 0 c-109 0 -163 3 -156 10 9 9 656 448 662 450 1 0 2
-61 2 -135z m345 -307 c2 -13 23 -131 45 -263 22 -132 43 -250 45 -262 l5 -23
-360 0 c-198 0 -360 1 -360 3 0 6 90 525 95 545 l5 22 260 0 260 0 5 -22z
m-715 -180 c0 -7 -7 -48 -15 -91 -8 -43 -15 -81 -15 -83 0 -2 -137 -4 -305 -4
l-305 0 0 95 0 95 320 0 c249 0 320 -3 320 -12z m630 -668 c0 -82 -1 -150 -3
-150 -5 0 -251 272 -261 288 -6 9 23 12 128 12 l136 0 0 -150z m-226 -130
l127 -140 -131 0 -130 0 0 140 c0 77 1 140 3 140 2 0 61 -63 131 -140z m-684
-45 l0 -95 -180 0 -180 0 0 95 0 95 180 0 180 0 0 -95z m908 -392 c1 -79 -1
-143 -5 -142 -9 0 -246 264 -251 279 -3 7 41 10 125 8 l128 -3 3 -142z m-248
-103 c57 -63 115 -127 129 -142 l25 -28 -132 0 -132 0 0 147 c0 80 1 144 3
142 2 -2 50 -56 107 -119z m250 -465 c0 -80 -1 -145 -3 -145 -6 0 -257 278
-257 284 0 3 59 6 130 6 l130 0 0 -145z m-226 -125 l127 -140 -131 0 -130 0 0
140 c0 77 1 140 3 140 2 0 61 -63 131 -140z m224 -437 c1 -79 -1 -143 -5 -142
-9 0 -246 264 -251 279 -3 7 41 10 125 8 l128 -3 3 -142z m-248 -103 c57 -63
115 -127 129 -142 l25 -28 -132 0 -132 0 0 147 c0 80 1 144 3 142 2 -2 50 -56
107 -119z m250 -465 c0 -80 -1 -145 -3 -145 -6 0 -257 278 -257 284 0 3 59 6
130 6 l130 0 0 -145z m-207 -146 c53 -59 97 -109 97 -113 0 -3 -56 -6 -125 -6
l-125 0 0 142 0 143 28 -30 c16 -17 72 -78 125 -136z m205 -417 c1 -79 -1
-142 -6 -140 -13 5 -252 271 -252 281 0 4 57 6 128 5 l127 -3 3 -143z m-124
-239 l30 -33 -132 0 -132 0 0 145 0 145 102 -113 c56 -61 115 -127 132 -144z
m382 -285 l31 -103 -465 -3 c-256 -1 -467 0 -470 3 -4 3 26 112 53 193 3 9 95
12 413 12 l408 0 30 -102z"/>
<path d="M2742 3170 l-22 -21 0 -530 0 -530 -40 -38 -40 -38 0 -355 0 -355 23
-21 c41 -39 96 -23 117 32 6 17 10 142 10 322 l0 294 485 0 485 0 0 -80 c0
-74 2 -82 29 -112 l29 -33 321 -3 321 -3 0 -774 0 -775 -260 0 -260 0 0 275
c0 300 -3 320 -55 343 -36 17 -494 17 -530 0 -52 -23 -55 -43 -55 -343 l0
-275 -255 0 -255 0 0 414 c0 276 -4 424 -11 445 -19 53 -77 68 -117 31 -22
-21 -22 -21 -22 -455 l0 -435 -65 0 c-57 0 -69 -3 -90 -25 -32 -31 -32 -69 0
-100 l24 -25 1109 0 c1107 0 1109 0 1136 21 36 28 36 80 0 108 -20 16 -41 21
-85 21 l-59 0 -2 816 -3 816 -37 34 -38 34 0 369 c0 243 -4 379 -11 400 -19
53 -77 68 -117 31 -19 -18 -22 -31 -22 -110 l0 -90 -340 0 -340 0 0 329 c0
214 -4 339 -11 360 -19 53 -77 68 -117 31 -17 -16 -22 -32 -22 -70 l0 -50
-340 0 -340 0 0 29 c0 93 -71 144 -128 91z m806 -497 l2 -223 -340 0 -340 0 0
225 0 225 338 -2 337 -3 3 -222z m-3 -483 l0 -105 -337 -3 -338 -2 0 110 0
110 338 -2 337 -3 0 -105z m830 -115 l0 -220 -232 -3 -233 -2 0 52 c0 76 -16
123 -51 152 -26 22 -40 26 -95 26 l-64 0 0 110 0 110 338 -2 337 -3 0 -220z
m-585 -1685 l0 -240 -170 0 -170 0 0 240 0 240 170 0 170 0 0 -240z"/>
<path d="M3044 1513 c-12 -2 -32 -15 -45 -29 -23 -25 -24 -31 -27 -220 l-3
-195 35 -35 35 -35 195 3 196 3 27 28 28 27 3 173 c5 283 1 288 -258 286 -91
-1 -175 -4 -186 -6z m291 -253 l0 -105 -107 -3 -108 -3 0 104 c0 57 3 107 7
111 4 4 52 5 107 4 l101 -3 0 -105z"/>
<path d="M3813 1506 c-17 -8 -36 -23 -42 -35 -7 -12 -11 -94 -11 -215 0 -192
0 -195 24 -223 l24 -28 188 -3 c281 -5 274 -11 274 262 l0 186 -29 32 -29 33
-184 3 c-141 1 -190 -1 -215 -12z m305 -248 l3 -108 -106 0 -105 0 0 110 0
111 103 -3 102 -3 3 -107z"/>
</g>
</svg>
