<?xml version="1.0" standalone="no"?>
<!DOCTYPE svg PUBLIC "-//W3C//DTD SVG 20010904//EN"
 "http://www.w3.org/TR/2001/REC-SVG-20010904/DTD/svg10.dtd">
<svg version="1.0" xmlns="http://www.w3.org/2000/svg"
 width="63.000000pt" height="63.000000pt" viewBox="0 0 63.000000 63.000000"
 preserveAspectRatio="xMidYMid meet">

<g transform="translate(0.000000,63.000000) scale(0.100000,-0.100000)"
fill="#000000" stroke="none">
<path d="M57 572 c-15 -15 -27 -34 -27 -41 0 -8 44 -58 97 -112 l97 -99 -97
-99 c-53 -54 -97 -105 -97 -113 0 -18 51 -68 69 -68 8 0 58 44 112 97 l99 97
99 -97 c54 -53 105 -97 113 -97 18 0 68 51 68 70 0 8 -44 59 -97 112 l-98 98
98 98 c53 53 97 104 97 112 0 19 -50 70 -68 70 -8 0 -59 -44 -113 -97 l-99
-97 -99 97 c-54 53 -105 97 -113 97 -8 0 -26 -13 -41 -28z"/>
</g>
</svg>
