<?xml version="1.0" standalone="no"?>
<!DOCTYPE svg PUBLIC "-//W3C//DTD SVG 20010904//EN"
 "http://www.w3.org/TR/2001/REC-SVG-20010904/DTD/svg10.dtd">
<svg version="1.0" xmlns="http://www.w3.org/2000/svg"
 width="512.000000pt" height="512.000000pt" viewBox="0 0 512.000000 512.000000"
 preserveAspectRatio="xMidYMid meet">

<g transform="translate(0.000000,512.000000) scale(0.100000,-0.100000)"
fill="#000000" stroke="none">
<path d="M855 5026 c-193 -37 -343 -115 -484 -250 -129 -125 -215 -270 -263
-446 -32 -122 -32 -337 1 -460 189 -702 1044 -943 1564 -441 297 286 370 746
176 1109 -125 234 -342 406 -599 472 -107 28 -294 36 -395 16z m360 -170 c87
-23 231 -97 299 -154 122 -101 214 -243 258 -398 29 -103 31 -294 4 -394 -74
-273 -293 -492 -566 -566 -100 -27 -291 -25 -394 4 -219 63 -392 206 -492 407
-63 129 -79 196 -79 345 0 145 15 213 74 335 108 225 303 377 551 430 81 18
262 13 345 -9z"/>
<path d="M961 4694 c-13 -16 -21 -41 -21 -63 0 -34 -2 -37 -50 -54 -70 -25
-128 -73 -164 -137 -58 -104 -35 -248 52 -320 53 -44 108 -67 227 -95 120 -28
154 -43 184 -81 30 -38 29 -103 -2 -132 -58 -55 -187 -68 -272 -28 -52 24 -79
54 -91 100 -8 32 -49 66 -80 66 -39 0 -78 -42 -77 -82 1 -49 44 -128 93 -172
43 -39 132 -86 163 -86 13 0 17 -9 17 -39 0 -54 31 -91 76 -91 50 0 84 37 84
90 0 35 3 40 23 40 25 0 115 40 158 71 16 11 43 44 59 72 58 102 33 248 -55
326 -52 45 -120 74 -240 101 -55 12 -111 28 -125 35 -129 66 -58 225 100 225
66 0 109 -19 145 -64 72 -90 84 -99 118 -92 41 8 67 39 67 80 0 36 -41 106
-86 148 -33 30 -123 78 -148 78 -12 0 -16 10 -16 39 0 56 -31 91 -80 91 -30 0
-43 -6 -59 -26z"/>
<path d="M2340 4570 c-144 -18 -244 -42 -268 -63 -33 -30 -28 -92 10 -120 26
-19 29 -20 110 -4 280 55 559 48 832 -23 679 -175 1208 -726 1354 -1410 37
-170 55 -444 36 -539 l-7 -32 -38 63 c-46 74 -62 88 -104 88 -39 0 -75 -36
-75 -75 0 -32 175 -324 217 -362 47 -44 65 -34 216 115 77 75 145 150 152 165
16 38 8 73 -23 97 -40 32 -68 25 -125 -29 l-52 -49 3 126 c13 479 -158 965
-470 1337 -312 373 -731 612 -1228 700 -112 20 -428 28 -540 15z"/>
<path d="M2383 3571 c-11 -10 -30 -45 -43 -77 -29 -74 -29 -74 -98 -100 -31
-12 -71 -28 -88 -35 -29 -11 -38 -10 -92 14 -97 44 -101 42 -229 -86 -128
-128 -130 -132 -86 -229 24 -54 25 -63 14 -92 -7 -17 -23 -57 -35 -88 -26 -69
-26 -69 -100 -98 -96 -38 -96 -39 -96 -220 0 -181 0 -182 96 -220 74 -29 74
-29 100 -98 12 -31 28 -71 35 -88 11 -29 10 -38 -14 -92 -44 -97 -42 -101 86
-229 128 -128 132 -130 229 -86 54 24 63 25 92 14 17 -7 57 -23 88 -35 69 -26
69 -26 98 -100 38 -96 39 -96 220 -96 181 0 182 0 220 96 29 74 29 74 98 100
31 12 71 28 88 35 29 11 38 10 92 -14 97 -44 101 -42 229 86 128 128 130 132
86 229 -24 54 -25 63 -14 92 7 17 23 57 35 88 26 69 26 69 100 98 96 38 96 39
96 220 0 181 0 182 -96 220 -74 29 -74 29 -100 98 -12 31 -28 71 -35 88 -11
29 -10 38 14 92 44 97 42 101 -86 229 -128 128 -132 130 -229 86 -54 -24 -63
-25 -92 -14 -17 7 -57 23 -88 35 -69 26 -69 26 -98 100 -38 96 -39 96 -220 96
-139 0 -158 -2 -177 -19z m271 -196 c25 -71 44 -90 110 -109 30 -9 92 -34 136
-55 87 -42 82 -42 182 -4 l48 18 47 -48 48 -47 -18 -48 c-37 -98 -37 -96 -5
-164 17 -35 43 -98 59 -142 31 -86 40 -96 117 -122 l52 -18 0 -76 0 -76 -55
-18 c-69 -24 -91 -45 -106 -99 -6 -23 -31 -86 -55 -139 l-45 -97 26 -60 c14
-33 25 -66 25 -74 0 -7 -20 -33 -45 -57 l-46 -45 -47 18 c-100 38 -95 38 -182
-4 -44 -21 -106 -46 -136 -55 -66 -19 -85 -38 -110 -109 l-18 -55 -76 0 -76 0
-18 53 c-26 76 -36 85 -122 116 -44 16 -107 42 -142 59 -68 32 -66 32 -164 -5
l-48 -18 -47 48 -48 47 18 48 c37 98 37 96 5 164 -17 35 -43 98 -59 142 -31
86 -40 96 -116 122 l-53 18 0 76 0 76 53 18 c76 26 85 36 116 122 16 44 42
107 59 142 32 68 32 66 -5 164 l-18 48 48 47 47 48 48 -18 c98 -37 96 -37 164
-5 35 17 98 43 142 59 86 31 96 40 122 117 l18 52 76 0 76 0 18 -55z"/>
<path d="M2463 3120 c-83 -15 -158 -48 -235 -103 -207 -148 -288 -419 -198
-661 51 -134 191 -275 325 -325 258 -97 534 -3 686 232 57 89 83 181 83 297 0
147 -39 252 -140 377 -47 57 -171 138 -250 163 -77 23 -199 32 -271 20z m192
-165 c83 -22 150 -61 203 -120 149 -165 144 -405 -12 -561 -235 -235 -626
-108 -688 224 -23 123 29 271 124 357 112 100 239 134 373 100z"/>
<path d="M497 2913 c-77 -76 -145 -151 -152 -166 -16 -39 -8 -73 24 -98 36
-29 76 -18 131 36 l45 44 -3 -127 c-17 -612 264 -1219 742 -1606 309 -250 681
-404 1081 -447 217 -23 610 11 674 59 21 15 26 28 26 62 0 35 -5 47 -26 62
-26 20 -27 20 -150 -2 -759 -135 -1512 206 -1922 870 -133 216 -227 496 -256
762 -12 107 -15 298 -5 347 l7 32 38 -63 c46 -74 62 -88 104 -88 39 0 75 36
75 75 0 32 -175 324 -217 363 -47 43 -65 33 -216 -115z"/>
<path d="M3943 1945 c-195 -35 -352 -116 -495 -253 -146 -140 -237 -314 -273
-521 -72 -410 151 -827 538 -1006 130 -60 223 -79 387 -79 120 -1 159 3 229
22 281 76 506 265 626 524 60 131 79 224 79 388 0 164 -19 257 -79 387 -179
388 -602 613 -1012 538z m367 -175 c213 -60 387 -206 486 -405 63 -129 79
-196 79 -345 0 -145 -15 -213 -74 -335 -78 -164 -194 -281 -356 -361 -129 -63
-196 -79 -345 -79 -149 0 -216 16 -345 79 -201 100 -344 273 -407 492 -29 103
-31 295 -4 394 84 307 336 533 651 584 65 10 241 -3 315 -24z"/>
<path d="M4041 1754 c-16 -21 -21 -41 -21 -91 0 -55 4 -67 25 -88 15 -16 36
-25 55 -25 19 0 40 9 55 25 21 21 25 33 25 88 0 83 -23 117 -80 117 -30 0 -43
-6 -59 -26z"/>
<path d="M3562 1557 c-35 -37 -29 -80 18 -131 23 -24 52 -47 67 -51 36 -9 79
12 93 44 16 41 3 75 -46 121 -52 48 -97 54 -132 17z"/>
<path d="M4515 1549 c-38 -34 -65 -77 -65 -104 0 -9 13 -30 29 -46 44 -43 74
-39 132 20 41 40 49 54 49 84 0 77 -80 102 -145 46z"/>
<path d="M4041 1394 c-20 -25 -21 -40 -21 -211 0 -103 4 -193 10 -203 15 -29
257 -163 292 -162 35 1 64 24 72 57 12 47 -9 72 -113 132 l-101 58 0 151 c0
138 -2 154 -21 178 -16 20 -29 26 -59 26 -30 0 -43 -6 -59 -26z"/>
<path d="M3366 1079 c-20 -16 -26 -29 -26 -59 0 -57 34 -80 117 -80 55 0 67 4
88 25 33 32 33 78 0 110 -21 21 -33 25 -88 25 -50 0 -70 -5 -91 -21z"/>
<path d="M4672 1093 c-17 -6 -42 -57 -42 -83 0 -11 11 -32 25 -45 21 -21 33
-25 88 -25 83 0 117 23 117 80 0 57 -34 80 -114 79 -33 0 -67 -3 -74 -6z"/>
<path d="M3625 651 c-17 -10 -43 -33 -58 -50 -52 -62 -24 -141 50 -141 30 0
44 8 84 49 59 58 63 88 20 132 -34 34 -54 36 -96 10z"/>
<path d="M4479 641 c-42 -43 -35 -80 25 -138 52 -50 101 -58 136 -23 35 35 27
84 -22 136 -59 60 -96 67 -139 25z"/>
<path d="M4065 478 c-36 -19 -45 -41 -45 -104 0 -80 24 -114 80 -114 57 0 80
34 80 117 0 55 -4 67 -25 88 -26 27 -58 31 -90 13z"/>
</g>
</svg>
