<?xml version="1.0" standalone="no"?>
<!DOCTYPE svg PUBLIC "-//W3C//DTD SVG 20010904//EN"
 "http://www.w3.org/TR/2001/REC-SVG-20010904/DTD/svg10.dtd">
<svg version="1.0" xmlns="http://www.w3.org/2000/svg"
 width="512.000000pt" height="512.000000pt" viewBox="0 0 512.000000 512.000000"
 preserveAspectRatio="xMidYMid meet">

<g transform="translate(0.000000,512.000000) scale(0.100000,-0.100000)"
fill="#000000" stroke="none">
<path d="M766 5100 c-95 -37 -159 -124 -172 -232 l-7 -58 -127 0 c-116 0 -128
-2 -146 -21 -18 -20 -19 -41 -19 -389 0 -348 1 -369 19 -389 18 -19 30 -21
146 -21 l127 0 7 -56 c8 -73 26 -113 72 -164 76 -83 81 -85 406 -88 l287 -3 3
-232 c3 -218 4 -234 26 -274 52 -98 159 -163 266 -163 84 0 143 26 206 89 82
83 90 114 90 372 l0 209 594 0 c585 0 594 0 620 21 34 27 35 71 1 104 l-24 25
-596 0 -595 0 0 326 c0 317 1 327 22 365 43 76 139 98 210 47 47 -33 55 -62
60 -214 4 -129 7 -146 32 -197 56 -115 159 -173 291 -165 112 7 199 68 247
173 23 49 23 58 26 428 l3 377 670 0 c736 0 716 2 752 -59 15 -26 17 -75 17
-511 0 -428 -2 -485 -16 -510 -36 -60 -33 -60 -473 -60 l-402 0 -24 -25 c-32
-31 -32 -69 0 -100 l24 -25 409 0 c469 0 474 1 552 80 72 71 80 105 80 352 l0
208 86 0 c84 0 87 -1 119 -33 45 -45 47 -67 43 -407 -3 -309 -5 -318 -61 -355
-14 -9 -404 -81 -965 -180 -519 -91 -956 -172 -972 -180 -53 -27 -103 -79
-126 -130 -22 -46 -24 -63 -24 -212 l0 -163 -119 0 c-105 0 -121 -2 -145 -21
l-26 -20 0 -160 0 -159 -25 0 c-14 0 -34 -9 -45 -20 -20 -20 -20 -33 -20 -959
0 -894 1 -942 19 -1000 67 -215 280 -348 502 -314 195 31 350 189 379 388 14
97 13 633 -1 674 -18 50 -72 67 -114 35 -19 -14 -20 -30 -26 -362 -6 -390 -9
-405 -80 -486 -60 -68 -136 -101 -229 -101 -125 1 -214 56 -270 167 l-30 61 0
884 0 883 305 0 305 0 0 -419 0 -420 26 -20 c15 -12 33 -21 40 -21 29 0 64 25
74 53 6 19 10 187 10 464 0 486 -1 495 -62 511 l-33 8 -3 157 c-2 155 -3 156
-29 176 -22 18 -40 21 -139 21 l-114 0 0 151 c0 134 2 154 20 179 33 46 -72
25 1340 270 603 105 607 106 660 138 57 35 105 106 120 177 8 37 10 161 8 373
-3 298 -4 320 -24 363 -24 52 -78 110 -127 136 -22 12 -65 19 -137 23 l-105 5
-5 225 c-5 243 -9 262 -65 328 -15 18 -51 45 -79 60 l-51 27 -1710 2 c-1668 2
-1711 2 -1759 -17z m594 -353 c0 -256 3 -267 70 -267 30 0 43 6 59 26 20 25
21 39 21 245 l0 219 590 0 591 0 -3 -367 c-3 -367 -3 -368 -26 -401 -63 -88
-200 -82 -248 10 -14 25 -19 68 -24 183 -5 139 -8 154 -32 195 -61 103 -149
155 -263 154 -119 -1 -211 -57 -262 -162 l-28 -57 -5 -637 c-5 -624 -5 -637
-26 -665 -63 -86 -189 -81 -244 9 -19 32 -20 52 -20 534 0 492 0 502 -21 528
-26 33 -79 36 -109 6 -19 -19 -20 -33 -20 -245 l0 -225 -264 0 c-257 0 -264 0
-297 23 -19 13 -39 38 -46 57 -17 49 -17 931 0 980 7 19 27 44 46 57 33 23 40
23 297 23 l264 0 0 -223z m-770 -347 l0 -260 -75 0 -75 0 0 260 0 260 75 0 75
0 0 -260z m2220 -1995 l0 -105 -210 0 -210 0 0 105 0 105 210 0 210 0 0 -105z"/>
</g>
</svg>
