<?xml version="1.0" standalone="no"?>
<!DOCTYPE svg PUBLIC "-//W3C//DTD SVG 20010904//EN"
 "http://www.w3.org/TR/2001/REC-SVG-20010904/DTD/svg10.dtd">
<svg version="1.0" xmlns="http://www.w3.org/2000/svg"
 width="100.000000pt" height="100.000000pt" viewBox="0 0 100.000000 100.000000"
 preserveAspectRatio="xMidYMid meet">

<g transform="translate(0.000000,100.000000) scale(0.100000,-0.100000)"
fill="#000000" stroke="none">
<path d="M422 939 c-24 -12 -50 -32 -59 -45 -12 -20 -24 -24 -62 -24 -95 -1
-170 -76 -171 -171 0 -38 -4 -50 -24 -62 -31 -20 -66 -94 -66 -137 0 -43 35
-117 66 -137 20 -12 24 -24 24 -62 1 -95 76 -170 171 -171 38 0 50 -4 62 -24
20 -31 94 -66 137 -66 43 0 117 35 137 66 12 20 24 24 62 24 95 1 170 76 171
171 0 38 4 50 24 62 31 20 66 94 66 137 0 43 -35 117 -66 137 -20 12 -24 24
-24 62 -1 95 -76 170 -171 171 -38 0 -50 4 -62 24 -21 31 -94 66 -138 66 -19
0 -53 -10 -77 -21z m122 -33 c18 -8 46 -30 62 -50 27 -34 32 -36 74 -30 88 10
157 -58 146 -145 -6 -42 -4 -46 33 -78 75 -64 75 -142 0 -206 -37 -32 -39 -36
-33 -78 11 -87 -58 -156 -145 -145 -42 6 -46 4 -78 -33 -42 -50 -89 -67 -138
-51 -19 6 -50 29 -68 51 -32 37 -36 39 -78 33 -32 -4 -53 0 -78 14 -49 26 -74
76 -67 131 6 42 4 46 -34 78 -24 21 -44 49 -51 73 -10 33 -9 44 9 82 12 24 35
52 52 61 29 17 30 21 25 65 -12 92 55 159 147 147 44 -5 48 -4 64 25 17 28 83
70 112 70 7 0 28 -6 46 -14z"/>
<path d="M555 520 l-120 -120 -57 57 c-49 49 -59 55 -73 43 -14 -12 -8 -22 57
-87 l73 -73 137 137 c106 105 135 140 126 150 -6 7 -13 13 -17 13 -3 0 -60
-54 -126 -120z"/>
</g>
</svg>
